<svg width="64" height="65" viewBox="0 0 64 65" fill="none" xmlns="http://www.w3.org/2000/svg">
<g filter="url(#filter0_d_18_12)">
<rect x="7.11108" y="5.6889" width="51.2" height="51.2" rx="25.6" fill="#0B0B0B"/>
<g filter="url(#filter1_d_18_12)">
<path d="M26.8824 36.7704L17.3809 21.0005C15.3874 23.9481 14.2222 27.4987 14.2222 31.317C14.2222 33.2146 14.5107 35.046 15.0454 36.7704H26.8824Z" fill="#E4E4E4"/>
<path d="M30.8748 23.4901H49.3958C47.0171 18.4308 42.4084 14.6229 36.8427 13.3358L30.8748 23.4901Z" fill="#E4E4E4"/>
<path d="M24.929 29.2052L34.4847 12.9462C33.8914 12.8882 33.2905 12.8569 32.6823 12.8569C27.1783 12.8569 22.2328 15.281 18.848 19.1141L24.929 29.2052Z" fill="#6100FF"/>
<path d="M28.7785 49.1964L34.6246 39.0012H15.9042C18.3595 44.3409 23.2872 48.3138 29.2143 49.4463L28.7785 49.1964Z" fill="#6100FF"/>
<path d="M38.454 25.7208L47.7851 41.9129C49.8976 38.9111 51.1431 35.2579 51.1431 31.3169C51.1431 29.3665 50.8368 27.4868 50.2732 25.7208H38.454Z" fill="#6100FF"/>
<path d="M40.3561 33.4905L31.0607 49.702C31.5953 49.7489 32.1359 49.7771 32.6824 49.7771C38.0615 49.7771 42.9088 47.4639 46.2862 43.7809L40.3561 33.4905Z" fill="#E4E4E4"/>
</g>
</g>
<defs>
<filter id="filter0_d_18_12" x="3.11108" y="5.6889" width="59.2" height="59.2" filterUnits="userSpaceOnUse" color-interpolation-filters="sRGB">
<feFlood flood-opacity="0" result="BackgroundImageFix"/>
<feColorMatrix in="SourceAlpha" type="matrix" values="0 0 0 0 0 0 0 0 0 0 0 0 0 0 0 0 0 0 127 0" result="hardAlpha"/>
<feOffset dy="4"/>
<feGaussianBlur stdDeviation="2"/>
<feComposite in2="hardAlpha" operator="out"/>
<feColorMatrix type="matrix" values="0 0 0 0 0 0 0 0 0 0 0 0 0 0 0 0 0 0 0.25 0"/>
<feBlend mode="normal" in2="BackgroundImageFix" result="effect1_dropShadow_18_12"/>
<feBlend mode="normal" in="SourceGraphic" in2="effect1_dropShadow_18_12" result="shape"/>
</filter>
<filter id="filter1_d_18_12" x="10.2222" y="8.85693" width="44.9209" height="44.9202" filterUnits="userSpaceOnUse" color-interpolation-filters="sRGB">
<feFlood flood-opacity="0" result="BackgroundImageFix"/>
<feColorMatrix in="SourceAlpha" type="matrix" values="0 0 0 0 0 0 0 0 0 0 0 0 0 0 0 0 0 0 127 0" result="hardAlpha"/>
<feOffset/>
<feGaussianBlur stdDeviation="2"/>
<feComposite in2="hardAlpha" operator="out"/>
<feColorMatrix type="matrix" values="0 0 0 0 0 0 0 0 0 0 0 0 0 0 0 0 0 0 1 0"/>
<feBlend mode="normal" in2="BackgroundImageFix" result="effect1_dropShadow_18_12"/>
<feBlend mode="normal" in="SourceGraphic" in2="effect1_dropShadow_18_12" result="shape"/>
</filter>
</defs>
</svg>
